<svg id="Layer_1" data-name="Layer 1" xmlns="http://www.w3.org/2000/svg" viewBox="0 0 400 200"><defs><style>.cls-1{fill:#c5232e;}</style></defs><title>BAM-graphic</title><path class="cls-1" d="M392.11,109.94a.83.83,0,0,0,.14-1.62l-1.92.91Z"/><path class="cls-1" d="M388.19,102.63c-1.71-.14-4,.1-4.49,1.93,2.29-.54,2.05.22,4.66-.51,1.08.54,1.22,1.68.6,2.08.65-.12,1.16,1.39,2.46.89-.24-2-1.73-3.2-4.14-3.51C387.21,102.94,387.88,102.83,388.19,102.63Z"/><path class="cls-1" d="M347,29.15c.26,0,.49-.08.84-.17A2.79,2.79,0,0,0,347,29.15Z"/><path class="cls-1" d="M305.33,36.1c.07.51.27.72.45.74C305.64,36.37,305.5,36,305.33,36.1Z"/><path class="cls-1" d="M307,18c0,.45-.07.83-.1,1.24C307.08,18.59,307.17,18.05,307,18Z"/><path class="cls-1" d="M347,29.15l-2,.36C345.14,30.09,346.06,29.45,347,29.15Z"/><path class="cls-1" d="M372.61,96.57a2.94,2.94,0,0,0,1.15.25,9.3,9.3,0,0,1-.9-.43A2.27,2.27,0,0,1,372.61,96.57Z"/><path class="cls-1" d="M367.85,34.66l-.06.78a4.07,4.07,0,0,0,.77.49C368.33,35.48,368.09,35.06,367.85,34.66Z"/><path class="cls-1" d="M366.26,58.85c.12-.5-1.55-.79-2.27-1A1.7,1.7,0,0,1,365.05,59,3.65,3.65,0,0,0,366.26,58.85Z"/><path class="cls-1" d="M372.68,88.52l.68.24C373.17,88.71,372.9,88.58,372.68,88.52Z"/><path class="cls-1" d="M364.73,18.17a1.35,1.35,0,0,0,.17-.71A1.13,1.13,0,0,0,364.73,18.17Z"/><path class="cls-1" d="M43.71,126.87c-.06.09-.05.17-.09.26C43.8,127,43.88,126.92,43.71,126.87Z"/><path class="cls-1" d="M69,140.47h-.41a6.75,6.75,0,0,0-.26.84Z"/><path class="cls-1" d="M283.51,21l.17-.07C284.51,20.2,284,20.55,283.51,21Z"/><path class="cls-1" d="M169.22,50.65c2.43-1.38,0,4,3.1,1.72C171.57,52.39,171.46,48.55,169.22,50.65Z"/><path class="cls-1" d="M372.26,96.05a8.9,8.9,0,0,1-.79-.58A2.72,2.72,0,0,0,372.26,96.05Z"/><path class="cls-1" d="M172.32,52.37h0l.31-.24Z"/><path class="cls-1" d="M239.93,49.53a2.08,2.08,0,0,0,.85.28C240.67,49.69,240.45,49.59,239.93,49.53Z"/><path class="cls-1" d="M273.53,31.07l-.92.33A3.33,3.33,0,0,0,273.53,31.07Z"/><path class="cls-1" d="M224.53,61.86c-.51.17-.79.09-1.25.63a1,1,0,0,0,.29,0C223.66,62.23,223.88,62,224.53,61.86Z"/><path class="cls-1" d="M213.52,65.74a3.28,3.28,0,0,0-.17.5c.1.05.18.13.28.18A5.65,5.65,0,0,1,213.52,65.74Z"/><path class="cls-1" d="M68.59,111.39a30.22,30.22,0,0,1-4.12-.36C67,111.51,62,113.23,68.59,111.39Z"/><path class="cls-1" d="M373.2,95.9a1,1,0,0,1-.94.15l.6.34C373.06,96.25,373.22,96.09,373.2,95.9Z"/><path class="cls-1" d="M231.34,72.35l-2.91,1.55A20.91,20.91,0,0,0,231.34,72.35Z"/><path class="cls-1" d="M93.08,45.21l.06.69A.7.7,0,0,0,93.08,45.21Z"/><path class="cls-1" d="M214,80.72a12.23,12.23,0,0,0-2.52-1.22,2.41,2.41,0,0,0-.71.26A14,14,0,0,0,214,80.72Z"/><path class="cls-1" d="M64.43,111h0Z"/><path class="cls-1" d="M40.49,123.8c2.5-1.29.08-2.34,0-3.64,2.81-2.1,2.22.59,3.79,1,1.62-1.39,2.28-3.73,3.84-4.29.26.26.61.25.45.77,0-.07.09-.14.14-.21s0-.12.32-.27.51-.34.78-.5a17.62,17.62,0,0,1,1.79-.93,32.82,32.82,0,0,1,4.33-1.59c3-1,6.48-2,7-3.23a9.3,9.3,0,0,1,1.46.13,22.19,22.19,0,0,1-5.34-1.48,3.8,3.8,0,0,0,1.49-.93c.37-.25.89-.37,2.59-.12-1.17.27-.2.57,0,.94a11.22,11.22,0,0,0,.85-.82c.63.06,1.12.11,1.45.17a2.41,2.41,0,0,1,.64.15c1.14.41-3,.91-1,1.54a18.25,18.25,0,0,0,2.27-1.23l-.3-.37c-.16-.13-.44-.3-.65-.45l-1.33-.9-2.37-1.64a11.93,11.93,0,0,1-2.94-2.64c2.29-.5,6.39,5.18,6,2.41.9,1.2,1.73,2.33,2.5,3.41.73-.37,1.15-.49,1.52-.38a2.3,2.3,0,0,1,.94.71c.14.14.35.31.45.43a1.17,1.17,0,0,0,.48.3,2.63,2.63,0,0,0,.87.11,2.3,2.3,0,0,0,.58-.07,2.49,2.49,0,0,0,.54-.24,48,48,0,0,0-6.64-6A43.52,43.52,0,0,1,60.64,98c-1.25-.45-1.56-.19-1.9,0s-.7.44-1.83.1a10.94,10.94,0,0,1-3.76-3.59c-.08-.14-.15-.27-.21-.4l-.09-.2,0-.14a2.93,2.93,0,0,1-.06-.58,6.79,6.79,0,0,1,.08-1.12c.19-1.45.46-2.68-2.11-3.46-1.82,0-4.07,1.22-5.25-1.93L48,86.16c-2.66-3.15-4.15.25-5.92-3.87,1.21,0,2.8,1.95,2.58,1.33-.52-3.15-2.34-.7-3.82-2.3l1.27-1.53c-.4-.38-.82-.76-1.25-1.14l-.66-.56-.34-.29a1.86,1.86,0,0,0-.21-.14l-.82-.47-.44-.27a4.8,4.8,0,0,0-.43-.23,15.36,15.36,0,0,1-3.38-2.3,7.27,7.27,0,0,0,2.76.43C36,74,35.19,73,35.31,72.56A18.58,18.58,0,0,1,40,74.21a6.21,6.21,0,0,1-1.14-1.67,2.89,2.89,0,0,1,1,1.09c.48.33.28.06,0-.36s-.88-1-.88-1.34c.53-.09,1.16,1,1.23,1.47a1.41,1.41,0,0,1,.7-1l.37-.21.21-.1.11,0a1.08,1.08,0,0,1,.25,0c.77-.09,1.56-.17,2.35-.22,3.15-.2,6.32,0,8.57,1l-.92.44c3.54.82,4.22-3.12,7.45-1.46l-.65.26c3.87.53,8,.52,11.82.72,1,0,1.91.12,2.84.2l2,.19,2.12.23a71.09,71.09,0,0,1,8.6,1.59c0-.75,1.34-.8,3-.79.08-1.68.39-3.56.4-5.3s-.27-3.26-1.45-4c.5-1.32.92-2.31,1.31-3.12l.56-1.14a1.79,1.79,0,0,1,.24-.4l.23-.31a17.1,17.1,0,0,0,2.08-4.54c.38-1.41-1.9-2.41-2-4.27l1.83.21-1.49-2.72,2.43-.94-.13-1.75c-.24.65-1.1,1.28-1.6,1.09-.32-2.79,2.69-6.13,3.64-6,0-1.07,0-2.14,0-3.21s.06-2.14.13-3.21c.68.32.6,1.39.84,2.3-.86-3.67,2-.1,1.28-3.46-.52.28-1-.5-1.32-.66a7.26,7.26,0,0,0,2-3,18.58,18.58,0,0,0,.73-2q.15-.51.27-1a.34.34,0,0,0,0-.15v-.08l0-.17a10,10,0,0,0,1.13.58,1.12,1.12,0,0,0,.27-.67,8.92,8.92,0,0,1,.08-1,1.14,1.14,0,0,1,.9.13,7.47,7.47,0,0,1-.34-1.9c0-.7.16-1.25.56-1.16a18.27,18.27,0,0,1,0,2.08,1.15,1.15,0,0,0,.06-1c-.06-.26-.18-.59.45-1.05,1,.75-.15,2.27-.46,2.78a2.92,2.92,0,0,1,.82-.28c-.23.49-.48.68-.77,1.31.15-.24.21-.23.21-.13s.22.25.37.43.37.41.56.62c.76.86,1.61,1.62,2.8,1.21l-.2.52c4.57,2.85,7,3.8,10.72,6.37,1.13-1.16,2.32.17,4.28,0,2.35,2.42,4.43,5.66,7.73,8.13,2.82,1.23,1.6-.46,3.28-.33-.85,1.19,2.47,3.68.07,3.1a71.14,71.14,0,0,0,10.87,6.86c-.11-.86-.53-1.53.13-1.65,1.05.55,1.59,2.08,1,2.48l-.34-.08c3.51,1.42,5.94,4.75,8.31,7.88.6.79,1.18,1.56,1.78,2.29l.23.27a2.2,2.2,0,0,0,.29.32l.89.86c.6.57,1.21,1.13,1.81,1.67,2.43,2.13,4.9,3.91,6.88,4.53l-.44-.17c2.72,1.51,5.17,2.81,7.37,3.9l.38.35.21.14c.5-.77.41,0,.26,1.07-.05,0-.1.1-.16.11L171,77a.29.29,0,0,0-.22.22c-.05.23.16.71.95,1.61h.11a64.09,64.09,0,0,1,2.47-8c.83-2.07,1.69-3.78,2.56-5.48s1.84-3.23,2.68-5c.22-.43.42-.87.62-1.31l.19-.45.15-.4a8.73,8.73,0,0,0,.43-1.71c2.91-.72,4.46-3.58,6-6.67s3.18-6.37,5.87-7.7l-1.07-.29c-.12-1.59,1.43-1,2.19-1.65-.77-.31-1.63.67-1.64-.28a40.63,40.63,0,0,1,2.25-3.55l.28-.41.2-.26c.14-.16.28-.33.43-.47a2.46,2.46,0,0,1,1.65-.89c.43,0,.63.44.58,1.09a3.47,3.47,0,0,1-.08.52,3,3,0,0,1-.09.35l-.11.35a8.09,8.09,0,0,1-.39,1,36.06,36.06,0,0,1,2.17-3.45c.52-.73,1-1.27,1.15-1.27s.1.55-.49,1.63a15.59,15.59,0,0,0-1.9,1.91c.58-.49.88-.26,1,.11a1.94,1.94,0,0,1,.13.66l.08,2.05c.13,4.33.22,8.64,1.42,12.77-.48-.48-1.07-.47-1.1-1.29-1.36,1.82.23,6.51,1.4,6.5-.07,1.3-1,.34-1.6,1.16-.39.9.12,2,.56,3A3.53,3.53,0,0,1,200,62l.15.63a7.64,7.64,0,0,1,.2,1.16,3,3,0,0,1-.3,1.86c-.2.36-.54-.78-.68-1.37.37,1,.59,3.45,1.15,5.18s1.26,2.75,1.64,1.45a9.53,9.53,0,0,0,3.71,5.71,15.76,15.76,0,0,0,2.75,1.67c1,.46,2,.81,2.88,1.21,1.58-.6,3.44-.49,5.2-.86s3.47-1.16,3.59-2.65c0,.71.59,1,1.51.75a13.56,13.56,0,0,0,3.51-1.66c.64-.39,1.38-.88,1.95-1.28.35-.28.7-.57,1-.87a7.37,7.37,0,0,0,1.39-1.74c-.13,1,2-.33,2,1,2-1.31,3.59-2.86,2.45-3.69,5.58.1,6-6.71,10.5-4.89a200.9,200.9,0,0,1,15.31-13c1.34,2.17-5.84,4-4,6,4.53-4.08,6.18-7.71,11.66-10.43,1.53-.55-.09,1.36-.27,2C271.8,44,277.38,42,281.12,38c.13.2-.21.72-.56,1.17.86-.64,2.33-1,1.53-1.89l-.69.81c-2.45-.45,1.47-5.07,1.1-5.89.46,3.63,5-2.17,5.11,2.72.47-.55.88-1.45.28-2,1-.37,1.57-.19,1.2,1.08l.49-.45.2-.21c.07-.06.13-.13.12-.16s.07-.27.1-.4.05-.52.07-.77a1.67,1.67,0,0,1,.95-1.39c.08.62-.16,1-.1,1.76a6.18,6.18,0,0,1,.85-2.23,2.9,2.9,0,0,1,1.69-1.38c-.19.52-.21,1-.54,1.25a16.73,16.73,0,0,0,2-2c.79-.88,1.74-1.93,2.74-2.91.46.33.73,1.46.32,3.46-2.53,2-.8,2-3,4.14a2.57,2.57,0,0,1,.68.55A15.28,15.28,0,0,0,296.75,32c0,.64.4,1,.73,1.57a1.93,1.93,0,0,1,.22,1.92,7.22,7.22,0,0,0-.94-.91l.12.58.06.31,0,.15,0,.28.28,2.28.78-2.6c1.22,2.43,2.82-.33,2.29,2.93-.13-.33-.12.28-.23,1.14a15.06,15.06,0,0,1-.31,1.55,5.48,5.48,0,0,1-.69,1.61h0a11.47,11.47,0,0,1,1,2,5.27,5.27,0,0,1,.06,2.76,3.42,3.42,0,0,1-1.54,1.09c-.58.26-1.14.42-1.36.81.94.25,1.12,2.05,1.32,3.89S299,57,300,56.51c-.47.06-1.6,1.58-1.83,2.16a11.4,11.4,0,0,0,1.5-.85c-.06.32-.12.61-.18.83.58.09.48.44-.44,1.73,2.22-1,2.36-1.78,2.58-2.51a1.88,1.88,0,0,1,.56-1,3.73,3.73,0,0,1,1.85-.7,13.35,13.35,0,0,1-1.39,1.3,46.7,46.7,0,0,0,7.45-3.89,36.8,36.8,0,0,1,7-3.58c2.52,1.09-4.1,2.63-1.82,3.47,1-.54,1.95-1.12,2.9-1.69.27-.17.35-.24.52-.35l.45-.32.9-.64,3.55-2.67a32.49,32.49,0,0,1,7.4-4.48l-1.05.26c-.84-2.9,4.46-.59,6.26-3.06-.51.5,0,1.82,0,1.45,3.66-1.29,6.59-4.12,11.28-7.51l-.25,1a10.38,10.38,0,0,0,1.89-.55c.33-.12.67-.26,1-.41l.8-.34a13.24,13.24,0,0,1,2.27-.86c.33-1,1.22-1.33.8-2.36a2.69,2.69,0,0,0,2.93.24,30.63,30.63,0,0,0,3.82-2.73,3.54,3.54,0,0,1,.51,2.25,8.67,8.67,0,0,1-1.53,4.11c0-.48-.68-.48-.71-.14.19.75.37,1.64.55,2.67a2.47,2.47,0,0,0,1.13-.76,14.49,14.49,0,0,1,.94-1.23c.82.14,1.36,1.4,1.25,2.69-.37-1.1-.94-.89-1.52-.45s-1.15,1.11-1.56,1.44c.44-.12.89.14,1.32.08l-.4.35a1.81,1.81,0,0,0-.24.34.54.54,0,0,0-.08.47c.1.24.47.36.86.5.77.3,1.64.72.66,2.54l-.71-.24c.27,1.43,1.12,2.79.8,4.29-1.65.52-.63-1.55-1.94-1.73-.07,2.14,2.7,4.4,1,6.22-.38-.93-.28-2.23-.66-3.16-2,2-1.58,2.25-2,3.79l.06-.15-1.14,3.54.58-.88c4,2.94.34,5.48,2.79,9.25-2.31-3.66-1.45-.68-3.24-1.07-.57.89-1.25,2.24-1.73,1.81,1.33,1.8-1.37,2.76.58,5.3-.59.06-.2,1.81-1.63,1.33.28,2.23,1-.46,1.77-.22a4.43,4.43,0,0,1,.29,2.79,12.6,12.6,0,0,1-.37,1.5l-.12.39-.14.56c-.09.38-.17.77-.24,1.16a6.8,6.8,0,0,0,4.9,8.33l.52.27a3,3,0,0,0,.4.17l.73.27c.47.16.91.28,1.33.39a23.47,23.47,0,0,0,2.36.44A17,17,0,0,1,371,89c.52,1.51-2.27.82-2.27.82a8.73,8.73,0,0,0,4.84,3.68c-.67.1-.59.68-.49,1.53,1.46.92,2.26-.82,3.51,1.14a8.63,8.63,0,0,1-2.85.64c1.95.83,4.22,1.25,6.22,2.13-.21,1-2,.34-3,.37,2.16,1.08,5.42,3,7,2.28l-.83-1.31c.73.46-.53,1.24-1.22,1.07-2.4-.31-1.95-2.13-1.67-2.61l1.42.62c1-3.34-5.1-3.19-7.36-5.12l2.58-1-3.76-.38c-.1-.85.43-2.1,1.84-1.48-.93-2.16-2.08-.51-2.67-2.59,0-.27.12-.3.34-.26l-2.15-.73c.66-.12.85-1.45,1.64-.43-2.08-3.27-6-2.31-5.94-4.5l.34.08a13,13,0,0,0-1.42-.68,2.59,2.59,0,0,0-.75-.16,1,1,0,0,0-.82.35,2,2,0,0,1-.87.61,3.4,3.4,0,0,1-2.35-.35,8.7,8.7,0,0,1,3-3.81q-.94.1-1.89.12c0-.46.12-1.34.86-1.25-.62-.69-.8-.67-1-.49s-.39.45-1-.06c1.84-2.29-.26-6.77,2.69-7.12-1.32-1-1.25,2.27-2-.4,3.18-.54-.3-3,1.31-5.19,1.56.8.54,2.85,2.15.71-2.62-1.52.94-4.3.56-6.21-2.16-.24-.58-4.15-1.06-7.36.72.25,1.66-5.86,2.68-8.75L367,43a2.55,2.55,0,0,1-1.59-2.41c0-.28-.05-.57-.07-.87V38.63a20.26,20.26,0,0,0-.07-2.11c1.34-.16,1.83.23,2.29,1.94l.22-3c-.66-.53-1-1.28-1.1-2.93a15.17,15.17,0,0,1,1.65-.06,30.35,30.35,0,0,0-.43-5.55,17.38,17.38,0,0,1,.56-6.81c-.85,1-2.1,3.35-3.23,4.91s-2.15,2.5-2.6,1.67c.94-1.34,2.54-3.69,2.84-3.06-.1-.23-.68-.23-.22-1.48a5.45,5.45,0,0,1,1.43-.39c.68-2.37-.56-.4-.91-.47a2.28,2.28,0,0,1-.67.44c1.31-1.9-.21-.78.95-2.34.44-.31.75-.09,1.41-.51,0,.12.06.18.15.16l.1-.51c-1.41.43-2.84.45-3-.34A7.14,7.14,0,0,1,362,21.36c-1.75.92-1.86.6-1.76.09s.46-1.24-.58-1a10,10,0,0,1-2.29,1.69,3.13,3.13,0,0,0-1.64,2.1c-1,.5-1.14-.3-1.56-.59-2,1.84-9.2,4.85-6.23,5.32l.49-.11c-.06.07-.16.12-.24.2h0l-.83.71c-.24.2-.5.39-.76.57a14.4,14.4,0,0,1-1.66,1,31.64,31.64,0,0,1-3.65,1.48,28.86,28.86,0,0,0-7.12,3l-.28-.48c-2.34,1.88-5.73,3.29-7,5.27-.79.39-2.37.06-2.38-.67-1.82,1.38-1.73,2-5.13,2.71,1.55-1.85-1.15-.38,1.73-1.66-2.89.92-3.94.46-6,3.18.12-.85-.61-1-1.5-.78-.27.08-.3.05-.44.09a1.15,1.15,0,0,0-.31.11,1.32,1.32,0,0,0-.48.43,6,6,0,0,0,1.34.46,6.42,6.42,0,0,1-2.26,1.09,16.56,16.56,0,0,0,.18-2.17c-.4-.26-.64-.29-.93-.11a5.34,5.34,0,0,0-1,1,19.7,19.7,0,0,1-3.16,3.11c-.12-.49.15-1.67,1.25-3.45a3.11,3.11,0,0,0-1.17,1.79,5.06,5.06,0,0,1-1.33,2.31,11.92,11.92,0,0,1,1.55-4c.72-1.23,1.42-2,1.41-2.14.27-.47.22-.6,0-.68s-.59-.06-1-.12a1.83,1.83,0,0,1-1-.39,1,1,0,0,1-.27-.48,1.1,1.1,0,0,1,0-.32,6.33,6.33,0,0,1,.07-.63c-.69.5-2.58,1-3.33-1.78.19-2.51,2.89-3.56,3.51-1.64.08.63-.14.93-.38.91.28.84.62,1.93,1.36.88l-.72-.32a5,5,0,0,0,.39-1.3c.05-.26.09-.49.14-.8s.08-.81.12-1.19c.18-1.52.41-2.73,1-2.17-.38-1.59-.68-1.79-.92-1.36a10.34,10.34,0,0,0-.58,2.66,30.81,30.81,0,0,0,.3-6.88,49.13,49.13,0,0,1,0-7.16c-.36,1.31-1.15,2.85-1.17,2,.64-8.57-1.4-1.7-1.82-5.72a10.88,10.88,0,0,1,1.18-3.19,3.22,3.22,0,0,0,.64-1.74,24.57,24.57,0,0,0-2.32,1.77c-1.11.29-1-.32-.28-1.26A33.25,33.25,0,0,1,306,8a20.05,20.05,0,0,1-6.78,4.3,40.43,40.43,0,0,0-5,1.84l2.93-2.48a35.58,35.58,0,0,1-4.54,3.22,9.26,9.26,0,0,1,1.41.7c-1.49.65-2.8,1.48-2.79.81a1.82,1.82,0,0,0-.31,2.08c.14.61,0,1.43-1.18,2.9a12.52,12.52,0,0,0-3.31,1.95c-1.13.77-2.17,1.31-3,.79,3-1.53,2.64-1.83,2.15-2.18s-1.27-.65,1.47-2.54a16.29,16.29,0,0,1-4,2.45c-.34,0,0-.45.42-.82a22.86,22.86,0,0,0-2.17.93,2.23,2.23,0,0,0-.7.45,1.49,1.49,0,0,0-.32,1.11c0,.82.1,1.8-1.72,2.93-.15-1.1-2-1-2.45-.46,1.47-.9,1.71.9.83,2.36-2.79.84-2.18,2.05-3.45,2.75l1.61-.58c.13,1.1-1.11,1.72-2.54,3-.6-.54,1.15-1.35.37-1.26-.74,2.54-5.16,1.09-7,3.61-1.57.19-1.25-1.44-2.54-1.16-2,2.81-3.87.81-6.18,3.53,1.66.54,1.61.18.32,2.54l4.29-3.81L260,40.46c1.47-.9,2.58-2.62,3.6-3-.83,1.82-.88,1.45.5,1.91-3.22-.36-3.27,3.44-6.41,3.8l-1.93-2.72c-4.38,1-5.16,5.27-10.19,7.44l1.8-.45c.19,1.44-2.68,1.9-3.82,3.26-.53-1-1.69-.73-2.74-.9.58.62-3.35,2-2.42,4.07l-2.91.09c-4,1.81-2.26,5.17-6,7.07.33-1.63-1.75-1.27.09-3.44-1.18.73-2.36,1.23-1.91,1.86-1.11-.13-2.35,3.25-4.07,3.08-.2.7.34,1.74-1,2.49a.55.55,0,0,1-.32-.44c.32.44-1.61,1.89.28,2.16a14.38,14.38,0,0,0-1.78,0,4.57,4.57,0,0,0-1.37.29,13.91,13.91,0,0,0-2.48,1.43,4.79,4.79,0,0,1-1.39.61,2.19,2.19,0,0,1-1.37-.14,2.11,2.11,0,0,1-.76-2.65,4.33,4.33,0,0,1-1.38-2,10,10,0,0,1-.53-2.52c.36.05.59-.09.48.22a1.16,1.16,0,0,0,.14-.67.63.63,0,0,0-.08-.23,1.61,1.61,0,0,0-.16-.35,3.65,3.65,0,0,0-1.14-1c-.86-.58-1.71-1.21-1.18-3.26,1.81-2.14,1.13,2.11,1.79.79,3.87-.71-.75-4.86,1.39-7.68l.26.65c1.23-2.13-1.71-5-1.59-8.43a.74.74,0,0,0,.59,0,12.18,12.18,0,0,1-2.35-4.57c-.59-2.28-1-4.53-1.35-6.31,1.54.37.88,1.5,2.35-.14-.16-1-.75-.49-1.39-.22s-1.31.32-1.6-1.16c.38-.85.72-2.08,1.15-3.41a15.4,15.4,0,0,1,1.73-3.9l.28,4a6.16,6.16,0,0,0,.6-4.55,9.21,9.21,0,0,1-.7-3.14l.89-1c-.43-2.85-1.16-3.38-1.81-3.87s-1.22-1-1.36-3.95l-.53,2c-1,.8-.8-.35-.53-1.82l.19-1.1c0-.07.05-.21,0-.22h-.07a.35.35,0,0,0-.16.07,8.37,8.37,0,0,0-1.59,2.24c.29-1.37.54-2.7.76-4-1,1.43-2.77,4-4.41,6.42s-3.22,4.89-4.43,6.49A35.85,35.85,0,0,1,201,13.14c1.44-2.26,3.06-4.58,4.46-6.71-.86.86-2.36,2.45-3.76,4.15a19.23,19.23,0,0,0-3.12,4.77c.64-1,1.59-2.77,2.16-2.86-1.22,2.53-2.34,4.68-3.47,6.53a31.34,31.34,0,0,1-3.55,4.9c-.19-1.47-.74-1.76-1.64-1.28a15.28,15.28,0,0,0-3.29,3c-1.21,1.41-2.54,3-3.82,4.24a5,5,0,0,1-3.09,1.55,27.51,27.51,0,0,1-5,7.72A48.94,48.94,0,0,0,171,47.32c4.39-.63-.94,1.83,2.53,3-.6,1.5-.92,2-1.21,2l-2.15,1.72a2,2,0,0,1-.86.48,5.59,5.59,0,0,1-.71.21c-1.05-.25-.4-1-1.15-1.27-.34.36-.67.17-1.05-.11a12.07,12.07,0,0,1-1.17-1,5.55,5.55,0,0,1,.91,1.18c.13.28.06.47-.14.33A3.08,3.08,0,0,0,167.33,55c.13.64.06,1-.08,1.15s-.36,0-.56-.24c-.43-.48-.83-1.46-.9-1.26,0,0-.08.12-.13.48a8.59,8.59,0,0,0-.15-1.53c0,.43-.18.26-.47.37A17.85,17.85,0,0,0,162.93,55c.06-.21.24-.5.36-.81a.6.6,0,0,1,.38-.28c.17,0,.23-.12.33-.12l0,0-.08-.08-.46-.38c-.31-.25-.63-.49-1-.72-.66-.48-1.37-.93-2.09-1.36-1.46-.88-3-1.69-4.48-2.51-2.95-1.63-5.66-3.27-6.94-5.41l1-.32c-1.07-.55-2.68-.1-3.21-1.63.3-.21.95-.33.57-.7-.68-.17-3.43-.84-4.28-2.16l1.69.12c-3.94-4.59-8.85-4.14-13.28-6.88,1.73-1.83-1.54-5.42-3.27-7.19l.3-.22c-5.7-4.61-11.58-5.73-18.1-8.37a4.9,4.9,0,0,0-.68-1,4.41,4.41,0,0,0-.68-.63c-.27-.23-.57-.47-.88-.7a37.08,37.08,0,0,0-4.38-2.73C102,10,100.23,9.14,98.36,8.26s-3.89-1.77-5.84-2.6c-2,4.15-4.06,8.17-6.16,11.6.53-.66.92-.27,1.13.47a5.7,5.7,0,0,1,.06,2.67,5.25,5.25,0,0,0-.72,1.82,2.67,2.67,0,0,0-.1.49l0,.35,0,.67c-.07.85-.3,1.41-1.4.95l.23-.5c-2.66.38-3.12,3.57-3.91,5.9l2.92,1.19c-3.18,2.44-3.89,6.64-4.24,10.44a40.93,40.93,0,0,1-.64,5.22,5,5,0,0,1-2.08,3.46c.57,1.62.26,3.5.89,5.09l-1.68-.25c-.22,1.05-.45,2-.6,2.84l-.21,1.27a1.67,1.67,0,0,0-.08.2A2.09,2.09,0,0,0,76,60.7a12.32,12.32,0,0,0-1.15-1.06s.52.54,1.25,1.42a8.94,8.94,0,0,1,1.43,2.25c.27.67.2,1.18-.32,1.18a22.36,22.36,0,0,1-1.61-2.4,3.65,3.65,0,0,1-1.29-.32,7.29,7.29,0,0,0-1.54-.32c-.67-.11-1.34-.22-2-.31a17.34,17.34,0,0,0-8.11.45,1.25,1.25,0,0,1,1.18-1.05c-2.54-.18-9.74-2-9,1.2,0-2.07-5.56-.46-8.52.32l.54-1.51a29.12,29.12,0,0,1-2.74,1.92,5.36,5.36,0,0,1-1.34.5l-.43.09-.24,0-.34,0-1.56.13c-1.14-.25-1.2-1.28.45-.82a4.57,4.57,0,0,0-3.51.16c-.76.33-1.43.66-3.94.13a13.48,13.48,0,0,1,1.18-.92c-4.24-.32-3.65.24-4.61,1.33a11.17,11.17,0,0,1-4.57-.32A25.09,25.09,0,0,1,19.51,61c.39.44.51.93.24,1.26s-.94.48-2.41.23c-1.33-.57-1.14-.88-1-1a23.37,23.37,0,0,0-4.81-.35h-.11s.05.06.08.09l.19.21.4.4.81.8,1.62,1.53c2.12,2,3.74,3.4,3.73,4.64-.85-.2-1.12-.1-1.14.12-3.26-4.05-5.75-7.28-5.26-6.85-1.52-.7-1.71-.24-2.26-.11s-1.44,0-4.81-2.57C6,60.44,7.49,61.7,9,63l4.45,3.74c2.81,2.42,5,4.44,5.89,6.05a.66.66,0,0,1-.36.36l-.54-.38A8.51,8.51,0,0,0,20.6,75a15.07,15.07,0,0,0,1.86,2.93c-.55.3.2,1.44,1.28,2.73S26.08,83.15,26.8,84a2.26,2.26,0,0,1,1.9,0c.5.1.72,0,.53-1.29.1.29-.42-.18-1.35-1.14a5.63,5.63,0,0,0-.73-.57l.23,0c-.95-1-2.2-2.44-3.59-4,2.14,1.23,3.86,2.18,4.39,4.17,1.68.32,3.27.51,4,.62a10.6,10.6,0,0,0,0,2.32c.06.75.19,1.5.3,2.2.23,1.4.45,2.6.07,3.22,3.69,2.7,7.59,7.23,11.89,7.27,1.18.64.33,1.58.29,2.22-.75-.32-1.31-1-1.93-1a14.66,14.66,0,0,1,1.88,1.33l.49.4a5.11,5.11,0,0,0,.43.33l.61.39a4.92,4.92,0,0,0,3.2.76c.26.92-.61.75-1.1.73s-.75-.07.3.73c-.36,0-.71-.1-1-.13-.24.58-.22.9.18,1.27a4.81,4.81,0,0,0,.87.58l.63.34.36.19s0,.07,0,.11a2.2,2.2,0,0,1,0,1,2.58,2.58,0,0,1-1,1.31,6.76,6.76,0,0,1-2.44,1.12,6.16,6.16,0,0,1-1.58.23,19.24,19.24,0,0,1-2.53.2c.76,0,1.13-.07,1.42.19a33.29,33.29,0,0,0-7.15,2.67c-1.14.6-2.21,1.17-3.37,1.89-1.48.86-2.82,1.8-4.16,2.71s-2.58,1.86-3.8,2.79L21.59,122c-1.19.92-2.39,1.87-3.67,2.82l-2,1.47-1.06.75-.56.39-.07.3A36.37,36.37,0,0,1,18,130.08a10.54,10.54,0,0,0,4.48,1.42c1.43.13,2.85.05,4.53.13A12.52,12.52,0,0,0,26,133q3.21.14,5.83,0a10.15,10.15,0,0,1,5.3,2.27l1.32,1.08c1.79,1.44,3.85,2.77,7.13,2.26l-.4-1.27c2,.78,6.7,1,6,2.18.27-.14,1-1,1.64-.2l-.17.85c1.84-.09,3.66-.18,5.48-.31,3.82,1.43-1.47,3.25,4.36,4.57,2.28.11,6.75-1.38,6-2.09-.86-.19-2.12-.92-2-1.78l2.06-.11c.87-2.45,2.8-4.78-1.49-7.34l-3.58.92-.76-1.42c.91.16,1.82.31,2.74.45-1.29-1.42-2.49-.62-3.76-.14a2.23,2.23,0,0,0-1-1.62c-1.24.57-2.51,1.15-3.77,1.69-.12-1.05,1.92-1.6,0-2.62-1.78.77.83,2.5-1.83,2.67-1.23-1.49-.51-2.31-2.59-1.78-.07-.7.44-1,1.23-1.12-1.83.39-4.31-.73-5.54.36-1.15-1.79-5.49-1.14-4.54-3.4a7.49,7.49,0,0,1-2.14.6,10.3,10.3,0,0,1-1.46.14,5.1,5.1,0,0,1-.68,0l-.32,0-.23,0a.74.74,0,0,1,.25-.2,1.52,1.52,0,0,0,.23-.16,1.07,1.07,0,0,0,.28-.3.39.39,0,0,0-.09-.51l-.13-.11s0,0,0-.07a.47.47,0,0,0-.1-.1,1.38,1.38,0,0,0-.27-.16c-.19-.1-.4-.21-.36-.44s.36-.57,1.09-1.15a3.45,3.45,0,0,1-2.84.89,14.5,14.5,0,0,0-3.38-.29c.51,0,1.48-.15,1.3-.06,0-.11.09-.22.36-.31a9.43,9.43,0,0,1,1.24-.3l1.31-.23c-4.48.38-4.5-.36-5.78-1.22a7.81,7.81,0,0,1,3.74.4,13.84,13.84,0,0,0,3.45.52,4.39,4.39,0,0,1-2.4-.57,2.86,2.86,0,0,0-1.67-.78,12.82,12.82,0,0,1,1.82.08,7.77,7.77,0,0,1,1.79.58c-1.46-.74-1.43-.9-1.24-1s.48-.09.1-.86a2.73,2.73,0,0,1,1.6,1c.15.13.13.27.41.14a5.1,5.1,0,0,0,1-.89c.83,0,.81.57.59,1.07A5.85,5.85,0,0,1,40.49,123.8ZM33.71,74.26h0l.64.61Zm-2.09-2.48a6.7,6.7,0,0,0,.77,1,5.27,5.27,0,0,1-2.22-.89C31,72.3,31,71.79,31.62,71.78ZM24,80.29c-1.32-1.19-1.32-1.68-1.07-1.9.52.56,1.15,1.22,2,2,.1,0,.23.07.33.08A3.59,3.59,0,0,1,24,80.29Z"/><path class="cls-1" d="M27.88,81.55a5.67,5.67,0,0,1,.47.35,7.13,7.13,0,0,0-.17-.73l-.8-.14Z"/><path class="cls-1" d="M348,28.93l-.16.05a.91.91,0,0,1,.41,0A1,1,0,0,1,348,28.93Z"/><polygon class="cls-1" points="92.76 51.36 92.33 51.31 92.62 51.83 92.76 51.36"/><path class="cls-1" d="M359.82,39a1,1,0,0,0-.45.25A1,1,0,0,0,359.82,39Z"/><path class="cls-1" d="M358.39,52.47l-.75,1.89A10,10,0,0,0,358.39,52.47Z"/><path class="cls-1" d="M356.74,62.91a2.39,2.39,0,0,0,.7.25s0,0,0,0Z"/><path class="cls-1" d="M280.56,39.18a1.74,1.74,0,0,0-.32.28C279.57,40.25,280.08,39.79,280.56,39.18Z"/><path class="cls-1" d="M299.12,42.79a9.22,9.22,0,0,1-.86-2C298.17,42,298.16,43,299.12,42.79Z"/><path class="cls-1" d="M231.66,72.18s0,0,0,0l-.31.19Z"/><path class="cls-1" d="M298.22,38.34a3.27,3.27,0,0,0-.19,1.23,3.43,3.43,0,0,0,.07.56c0,.23.1.47.16.7l.07-.75c0-.19,0-.39.05-.59A3,3,0,0,0,298.22,38.34Z"/><path class="cls-1" d="M380.42,102.65l.39.37a.42.42,0,0,1,.22-.16Z"/><path class="cls-1" d="M381,102.86l.6.22C381.41,102.91,381.22,102.78,381,102.86Z"/><path class="cls-1" d="M382.9,103.53l-1.27-.45C382,103.34,382.37,103.7,382.9,103.53Z"/><path class="cls-1" d="M369.17,93.24l-.52.34A1.2,1.2,0,0,0,369.17,93.24Z"/><path class="cls-1" d="M365.49,90.68c.76.74,1.31,2.53,2.74,3.16l.42-.26C367.51,93.8,367,90.56,365.49,90.68Z"/><path class="cls-1" d="M363.35,73.15l-.76,3.46c.34-.19.75-.59,1.07-.63a.37.37,0,0,1,.41.16,1.7,1.7,0,0,1,.19.65,1.92,1.92,0,0,0,.18-.22l.17-.33.23-.51a1.3,1.3,0,0,0,.14-.56c0-.19-.27-.1-.56,0C363.83,75.33,363,75.46,363.35,73.15Z"/><path class="cls-1" d="M365.15,62.24c.15,1.92.94,0,1.3.16C366,61.16,365.83,60.85,365.15,62.24Z"/><path class="cls-1" d="M323.46,39.82l-.55-1.32C321.61,39.38,323.18,39,323.46,39.82Z"/><path class="cls-1" d="M310.55,54.59c.63,0,1.3,0,2,0,.28-.63.54-1.25.77-1.85Z"/><path class="cls-1" d="M308.59,44.15l.38-.42-.4.4a1.14,1.14,0,0,1-.37,0,.87.87,0,0,0,.31.07Z"/><path class="cls-1" d="M215.68,65c-.28.79-.53,1.59-.75,2.39a2.77,2.77,0,0,0,1-1.56C216.07,65.23,216.12,64.77,215.68,65Z"/><polygon class="cls-1" points="81.33 33.59 81.06 32.26 80.93 34.6 81.33 33.59"/><path class="cls-1" d="M395.2,116.19c.14-.52-.28-1.53-.92-1.17l0,1.87Z"/><path class="cls-1" d="M389.66,113.94a4.14,4.14,0,0,0-.17,4.26c.36-1.88.74-1.21,1.08-3.43.64-.36,1.36.3,1.42,1,.12-.51,1.18.15,1.26-1-1.26-1.17-2.43-1-3.33.43C389.56,114.8,389.69,114.28,389.66,113.94Z"/><path class="cls-1" d="M327.1,137.65l.32-.36A.75.75,0,0,0,327.1,137.65Z"/><path class="cls-1" d="M314.86,157.94c.19.05.31-.09.36-.25C315,157.73,314.88,157.77,314.86,157.94Z"/><path class="cls-1" d="M310.4,153.16c.1.13.21.21.31.32C310.66,153.25,310.56,153.09,310.4,153.16Z"/><path class="cls-1" d="M327.1,137.65l-.85.92C326.87,138.76,326.84,138.13,327.1,137.65Z"/><path class="cls-1" d="M381.45,120.31a1.44,1.44,0,0,0,.48-.6,4,4,0,0,1-.52.32Z"/><path class="cls-1" d="M339.16,121.79l.33-.09a4.62,4.62,0,0,0,.06-.79Z"/><path class="cls-1" d="M353.26,117.84c-.34,0,0,1.53.07,2.22,0-.66.14-1,.39-1.2A4.28,4.28,0,0,0,353.26,117.84Z"/><path class="cls-1" d="M376.59,115l.35-.3C376.85,114.77,376.69,114.87,376.59,115Z"/><path class="cls-1" d="M327.64,128.36a1.45,1.45,0,0,0-.61-.09A1.14,1.14,0,0,0,327.64,128.36Z"/><path class="cls-1" d="M58.89,154.7l.3,0C59,154.63,58.91,154.6,58.89,154.7Z"/><path class="cls-1" d="M69.44,140.17l0,.23c.31.06.62.13.93.17Z"/><path class="cls-1" d="M299.54,145.19l0,.05C300,145.25,299.79,145.19,299.54,145.19Z"/><path class="cls-1" d="M205.84,141.35c.67,1.79-2.88.76-1.63,3C204.3,143.68,207.05,142.83,205.84,141.35Z"/><path class="cls-1" d="M381,120.2a3.8,3.8,0,0,1-.58.15A1,1,0,0,0,381,120.2Z"/><path class="cls-1" d="M204.21,144.31h0l.14.21Z"/><path class="cls-1" d="M270.94,132.64a1.87,1.87,0,0,0,0,.74A1.36,1.36,0,0,0,270.94,132.64Z"/><path class="cls-1" d="M290.83,144.39l-.41-.44A1.18,1.18,0,0,0,290.83,144.39Z"/><path class="cls-1" d="M258.21,130.3c-.26-.21-.29-.45-.78-.38a.65.65,0,0,0,.06.21C257.72,130,258,130,258.21,130.3Z"/><path class="cls-1" d="M244,135.33a1.8,1.8,0,0,0,.25-.17l-.27-.08A2.29,2.29,0,0,1,244,135.33Z"/><path class="cls-1" d="M68.64,186.56a3.49,3.49,0,0,1-.1-1.65C68.28,186.45,65.54,188.79,68.64,186.56Z"/><path class="cls-1" d="M381.22,119.47c0,.39,0,.61-.19.73a3.34,3.34,0,0,0,.38-.17A.89.89,0,0,0,381.22,119.47Z"/><path class="cls-1" d="M253.31,141.63l-1.72-.78A7.23,7.23,0,0,0,253.31,141.63Z"/><path class="cls-1" d="M131.56,164.24l-.65-.35A.79.79,0,0,0,131.56,164.24Z"/><path class="cls-1" d="M246.82,139.77v-.38l0-.15v0l.06-.37.13-.69c.15-.88.26-1.85.35-2.57a15.83,15.83,0,0,0,.09-2.08,2.89,2.89,0,0,0-.05-.66,1.18,1.18,0,0,0-.09-.39,12.24,12.24,0,0,1-.12,4.48c-.07.53-.15,1.07-.25,1.6l-.18,1.07S246.81,139.71,246.82,139.77Z"/><path class="cls-1" d="M68.54,184.89s0,0,0,0S68.55,184.89,68.54,184.89Z"/><path class="cls-1" d="M53.29,192.69c-.18,1.74.41,1.24,1.21.13S56.34,190,57,189.28c.43,2.24-2,4.41-3.46,7.74a.62.62,0,0,0,.67.48c2.33-2.49,4.49-5.17,5.44-5.74a4.58,4.58,0,0,1-.87,1.67,23.21,23.21,0,0,1,4.9-4.41,18.36,18.36,0,0,0,4.8-4.74,1.13,1.13,0,0,1,0,.61,20.45,20.45,0,0,1,1.13-4.22c.92-.67,2.06-3,1.89-1.24-.51.3-.76,1.14-1.21,1.95l1.17-1.51c.23,2.22-1.56,1.88-2.2,4.07,1.21-1.2,2.5-2.77,3.57-4s1.94-2.16,2.65-2.32c.34,2.12-3.66,3.3-1.72,4-.84.28-1.65.52-2.41.74.56,1.46.22,1.63-.23,1.9s-.94.61-.38,2.19A16.24,16.24,0,0,0,75,183.37a16.12,16.12,0,0,1,4.14-3.11,1.8,1.8,0,0,0,0-1.6,2,2,0,0,1-.06-1.58c1.05-1.31,1.73-1.73,2.47-1.85a4.66,4.66,0,0,1,2.08.32,3.74,3.74,0,0,0,2,.23,2.15,2.15,0,0,0,1-.55l.23-.25a.7.7,0,0,0,.16-.26,3.1,3.1,0,0,0,.15-.57c-.26-1.4-1.63-3.41.81-3.59l.89,2.05c2.23-1.35-.87-3.24,2.27-3.72.18.93-1.16,1.74-.67,1.71,2.55.26.18-1.67,1.26-2.46l1.5,1.29c2-1.86,3.5-4.72,5.68-6.81.25.53.24,1.3,1.21,1.31,2.39-3,6.64-4.79,10.33-6.24l0-2.1c.27-.19,1,.18.94.63,1.57-.43-.67-.82-.58-1.73.55-.59,1.5,0,1.44.72a16.54,16.54,0,0,1,2.55-4.39,5.47,5.47,0,0,1,.45-.51c.11-.13.13-.18.21-.27a1.52,1.52,0,0,1,.45-.36.88.88,0,0,1,1.06.11,6,6,0,0,0,0,.61c.36.14.21-.84.27-1.85s.26-2,.69-1.36l-.13.49a2.57,2.57,0,0,0,.73-.35l.35-.27.18-.15s.06-.06.09-.06l.06.1a11.26,11.26,0,0,1,1,1.86,3,3,0,0,1-.09,2.49c.48-.38.75-.42.92-.31s.12.25.48.85c.53,1,1.16,1.83,2.69,1a19.9,19.9,0,0,1-.09,3,7,7,0,0,0,.92,3.37c.55.87,2.73-.17,3.84.52l-1.37,1.13,2.63,0-.5,1a3.93,3.93,0,0,0-.43,1.07l1.67,1c-.47-.6-.54-1.61-.08-1.88a7.89,7.89,0,0,1,2.89,3.28c.73,1.35,1.25,2.78,1.1,3.23,2.08,1,4,2,5.75,2.75-.17.76-1.09.33-1.92.24,1.63.16,1.65.77,1.73,1.45s.14,1.37,1.58,1.46c-.37-.8.2-1.17.24-1.59A9.19,9.19,0,0,0,143,174c.15.19.31.39.48.58s.33.3.51.45a23.22,23.22,0,0,0,4.09-5c0,.6.06,1.2.07,1.82,1-1,1.92-2.16,2.88-3.34l1.42-1.8,1.44-1.77,1.42-1.76.8-1a19,19,0,0,1,1.58-1.78c-1.25.44-2.7-1.09-2.18-1.91l1.71,1c-.45-1.19-1.25.25-1.44-1.57,1-.72,2.2.82,2.18,1.7l.56-1.45c.48.31.46.74.93,1.27-.44-1.19,3.21-.48,2.35-2.41l.47.32c2.37-2.13,3-3.52,5-5.27-1.09-1.19,0-1.57-.31-3,1.9-.86,4.46-1.24,6.28-2.71.83-1.58-.49-1.32-.49-2.48,1,1,2.9-.42,2.56,1.09.54-.43.48-.44.58-.56l.23-.32a5.59,5.59,0,0,1,.71-.85,1.58,1.58,0,0,1,.69-.61c-.12-.63-.39-.92-.26-1.41.43-.2.8.79.6,1.45l-.09.13a.85.85,0,0,1,.77-.2c.28.07.35.17,1,.55a21.21,21.21,0,0,1,2.78,2.45c1.78,1.74,3.51,3.35,5.75,2.67l-.25.06,4,0c1.4.85-1.38.59-.65,1.85,4.59-.69,5.44,2.61,9.06,2.38.4,4.72,8.14,3,10,6.7l.27-1c1.21-.55.7.9,1.18,1.35.26-.73-.46-1.16.26-1.44a33.76,33.76,0,0,1,10.08,4.56l2.37,1.53.15.09.07,0,.15.08.57.31,1.16.62,2.38,1.27c.81.42,1.63.88,2.45,1.28l2.45,1,2.5,1,1.27.51.32.12.16.06s.08-.06.12-.08l.46-.42c1.83-1.67,1.73-3.47,1.73-5a3.41,3.41,0,0,1,2.57-3.8A24.23,24.23,0,0,1,243,164l1.84-3.29.91-1.57.87-1.46c.7-1.25,1.5-2.43,2.27-3.61,1.55-2.36,3-4.73,3.38-7.51.26.46.79.71.53,1.17,1.85-.41,2-3.76.93-4.21.5-.73,1,.25,1.85-.09a4.31,4.31,0,0,0,.92-3.16c0-1.09,0-2,.85-2.41.3-.15.34.54.34.89a23.94,23.94,0,0,1,.33-3.08c0-1.07-.23-1.77-1.06-1.13a3.45,3.45,0,0,0-.07-2.18,6.32,6.32,0,0,0-1.09-1.49c-.45-.48-1-1-1.47-1.45l-.38-.37-.18-.2-.09-.1-.15.39-.07.2,0,0c-2.63,1.21,5.9-2.68-5.91,2.7h0l0,0a.9.9,0,0,1-.19,0c-.08,0-.06,0,0,.07a2.75,2.75,0,0,1,.21,1.22c0,.18,0,.44,0,.67l0,.78c0,.31-.05.63-.09.95l-.07.5-.07.59c0,.39-.12.83-.18,1.2,0,0,0,0,0,0a.11.11,0,0,1,.1,0,2.13,2.13,0,0,1,.72.25c.56.26,1.15.45,1.67-.66a1.54,1.54,0,0,0,1.08,2.19,4.52,4.52,0,0,0,3-.08c-.66.58.73,1.06-.1,1.9,1.34.39,2.73.37,3-.91.67,1.81,2.13,1.67,3.42,1.6a3.22,3.22,0,0,1,1.66.17,1,1,0,0,1,.46.58,1.41,1.41,0,0,1-.07,1.09c0-.1.37,0,.63,0l.83.11,1.62.22c1.07.16,2.11.34,3.13.54,2,.39,4,.87,5.86,1.41-1.34,2.16-4-1.54-5.07.86,3.77.58,6.72-.44,9.67,1.63.67.7-1,.73-1.51,1,3.78.64,6.18,3.2,9.74,3.44-.12.2-.56.27-1,.29.61.21,1.13,1,1.65-.06h-.71c-.06-1.89,4-1.89,4.59-2.59-2.65,2.35,2.42,2.15-1.25,4.95a1.69,1.69,0,0,0,1.54-.93c.44.47.38.94-.63,1.41,2.34.49,2.26-.92,4.08,0-.3.47-.78.47-1.31.93,1.49-.46,3-.91,4.28.3-.27.24-.32.7-.78.46,2.73,1.23,6.05-.09,8.37,2.35-2.16,1.58.55,1.2-.44,3.05l1.88.31-.06-1.19a6,6,0,0,0,2.28.51l.28,0,.36.09a7,7,0,0,1,.69.24,3,3,0,0,1,1.14.83l-1.82,0,3.85,1.7c-.63-.66-1.22-1.3-1.77-1.91,1.11,0,1.22-.69,1.39-1.12s.29-.65,1.23.22c-.43,0,1.43.82,2.36,2.78h0c.84-.29,1.43-.77,2.71.57.54,1.08.43,2.93.78,3.64.23-.88,1.23-.44,2.25,0s2.05.86,1.88-.3v0a.06.06,0,0,0,0,0,8.58,8.58,0,0,0,1,2.6l-.09-.63c-.05-.23-.17-.6-.26-.91l-.29-1c.53-.13.73,0,1.36,1.46a2.41,2.41,0,0,0-.61-2.53c-.46-.64-.83-1.14,0-1.84a8.43,8.43,0,0,1,.3,1.32,13.89,13.89,0,0,0,.89-4.65,11.07,11.07,0,0,1,.91-4.32c2.23.33-.1,2.95,1.8,3.13a45,45,0,0,0,.25-7.6,9.8,9.8,0,0,1,.35-4.85l-.38.52c-3-1,2-2,.93-3.78.15.42,1.62.82,1.29.65,1-2,.2-4.39-.07-7.72l.71.55c1-1.09,1.14-3.15,1.8-4.4-.71-.54-.41-1.27-1.67-1a6.47,6.47,0,0,0,1.54-1.24,2.33,2.33,0,0,0,.64-.82,12.2,12.2,0,0,0,.29-2c.19-1.49,1.69-2.78,3.7-1.45-.49.14-.51.83-.33.78l.22-.15.35-.18.76-.39,1.54-.77c-.64-1.15-.66-.62-1.66-1.39a2.62,2.62,0,0,1,1.76-1.85c-1.23,1.2.63,2,1.48,2.46-.22-.34-.13-.81-.31-1.18,2.4,1.72-.48-2.53,2.33-1.68l.08.67c.77-.56,1.32-1.62,2.33-1.68.83,1.31-.73.9-.43,2.08,1.3-.43,1.8-3.36,3.44-2.26-.44.54-1.26.75-1.7,1.29,1.82,1.32,1.84.86,2.9.88l-.11,0,2.48.18-.71-.31c.55-4.11,3.19-1.53,4.72-4.51-1.5,2.84,0,1.41.35,3.06.7.3,1.72.58,1.61,1.1.68-1.56,2.07.58,3-1.69.22.5,1.16-.23,1.3,1.13,1.26-.74-.59-.82-.67-1.5,1.63-2.29,5.63.93,8-2.23,2.36-1.64,2.36-3.5,4.59-5,1.07.63-.15,2-.15,2a3.52,3.52,0,0,0,3.62-.81c-.13.51.24.83.79,1.33,1-.37.16-2,1.71-1.59a7.67,7.67,0,0,1-.45,2.32c1.07-.75,2-2,3.1-2.74.57.83-.38,1.54-.65,2.23,1.28-.72,3.38-1.64,3.43-3.17l-1-.31c.49-.18.59,1.18.29,1.52-.9,1.4-1.86-.11-2.07-.61l.8-.54c-1.74-2.85-3.43,1.3-5.25,1.53l.14-2.39-1.32,2.26c-.55-.49-1.16-1.66-.37-2.2-1.58-.8-.91,1-2.35.09-.17-.16-.15-.28-.06-.4l-1.06,1c.11-.52-.64-1.51.21-1.37-2.6-.75-3.14,2.51-4.46,1l.15-.18c-2.89,1.49.16,1.7-1.62,4.16l-2.71-3.63.16,1.7c-.34,0-1,0-1.08-.63-.87,1.4.41.65,0,1.87-2-1.1-4,1.72-5.14-.77-.19,1.37,1.75.59.36,1.85-1.28-2.66-1.76.94-3.53,0,0-1.54,1.56-1.11-.23-2-.12,2.63-2.89.15-3.94.92.53,1.94-2.33,1.45-4.12,2.6-.07-.68-4.05-.09-6.12-.3l0-.34c.25,2-1.77,2.17-3,2.94a2.27,2.27,0,0,1,.38-2.42l-1.3.36a2,2,0,0,1-1.18,1.58l-.13-1.53a20.53,20.53,0,0,0-2.79,1.59,16.06,16.06,0,0,1-3.9,1.8c.43.57,1.6,1,2.35,1.67a1.85,1.85,0,0,1,.7,2.37c-.65-.53-1.77-1.41-1.43-2.05-.13.21-.15.93-.7,1a8,8,0,0,1-.18-1.62c-.7.18-.61.5-.44.81s.4.62.06.92c-.9-.72-1.09.06-1.75-.57.06-.29.92-.41.86-1a8.72,8.72,0,0,1-3.32,1.64c.65.21,1.37.72,1.19,1.55-.35,1-.71,1.1-1.16,1.05s-.94-.26-1.43.37a1,1,0,0,1,.21.66c0,.19,0,.37,0,.55,0,.35.2.66,1.06.83-.11.47-.94.41-1.45.5.58,1-.66,3.94,1.39,3.35l.17-.19c0,.05,0,.09.05.15h0c1.1,3.06-2.27,5.5-2.14,8.35l-.58-.11c.3,1.75-.42,3.68.57,5.07-.11.48-1.32.94-2,.6.08.66.27,1.06.27,1.49a1.46,1.46,0,0,1-.17.71,2.4,2.4,0,0,1-.66.87,2.48,2.48,0,0,0-.48-.47.3.3,0,0,0-.25,0c-.09,0,0,0,.25-.8a4.3,4.3,0,0,1-.63.89,1.48,1.48,0,0,0-.38.36c-.16.25,0,.51.57,1.41-.65-.53-1.13-.56-1.39-.47s-.3.37-.15.7a5,5,0,0,0,1.09.09,1.84,1.84,0,0,1-.34,1.34c-.54-.62-1.09-1.21-1.64-1.77-.92-.29-.59.3-.2,1.5.19.59.41,1.29.54,1.89s.2,1.15,0,1.16a8.87,8.87,0,0,1-1.46-2.27,4.31,4.31,0,0,0,.87,1.81,6.31,6.31,0,0,1,1.14,2.15,11.67,11.67,0,0,1-2-3c-.61-1.16-1-2.13-1-2.17-.44-.85-.38,0-.53.71s-.43,1.46-1,.75c0,.77.22,2.92-1.29,2.79a2,2,0,0,1-.56-2.09,2.46,2.46,0,0,1,.91-1.52c.19,0,.22.3.15.52.34-.09.67-.23.56-1.12l-.24.63c-.19-.89-1-1.25-.27-2.1a2.63,2.63,0,0,0-.39.29.36.36,0,0,0-.23.31,1,1,0,0,0,.08.74c0-.54-1-1.09-1.68-1.44a8,8,0,0,1-2.34-1.52c.11.47,0,1.28-.34,1.11-2.4-2.23-1.93.39-4-.39-.56-1.44,1.69-1.85-.71-2.16-.83-1.21.69-1.63,1.45-1.84-2.46.14-2.89-2.47-3.79-3.21l1.23,0a3.44,3.44,0,0,1-1.67-.52l-.16,1.41c-.43-.48-.9-.73-.59-1.2-1,.45-.73,2.12-2.49,2.55-.38-1-2.62-.52-2-2.17,2,1.71.66-1.65,2.79-.88a2,2,0,0,1-1.39-.75c0-.21.27-.27.47-.28-1.42-2.49-2.06,1.19-4.36,0,.81-.71.43-1.9-.06-1.91.93.49-.4,1.66-1.65,1.89-1.09-1.41-1.91-.31-2.64-.77l.7.75c-.8.71-1.48.23-2.67,0,.3-.71,1.21,0,1-.47-2,1-1.7-2.84-3.91-2.6-.42-.94.86-1.66.42-2.37-2.46.26-1.3-2.13-3.75-2.1-.1,1.42.15,1.18-1.83,1.69l3.61.66-3,.74c.94.46,2.41.22,2.87.68-1.5.5-1.24.25-1.33,1.43-.31-2.36-3.14-.19-4-2.07l1.65-2.87c-1.57-2.35-4.85-.38-7.41-2.44l.68.93c-1,1-1.91-.66-3.12-.61.6-.94.19-1.56.1-2.35-.33.75-2.15-1-3.44.81a4.06,4.06,0,0,0-.55-1l-.45-1c-2.35-1.47-4.1,1.86-6.36.7,1.17-.86.36-2,2.31-2.2-.81-.28-1.47-.72-1.76,0-.22-.8-2.79.62-3.17-.59-.52.34-1,1.38-1.92,1a.88.88,0,0,1,.2-.51c-.2.5-1.7.25-1.31,1.63-.68-2-2.46-2.47-4.41-2.8-.51-.08-1-.16-1.63-.23l-.54,0a5.84,5.84,0,0,0-.85,0h-.14l-.24,0-.48.11a4.19,4.19,0,0,0-.91.43,3.05,3.05,0,0,0-.58.5,3.21,3.21,0,0,0-.51.73,3,3,0,0,0-.26,1.58,3.2,3.2,0,0,0,.23.81l.09.19c0,.06,0,.05,0,.07l0,.09.12.19c.24.43.36.8-.2,1.24l.48.14c.16,0,.37.08.44.21a1.59,1.59,0,0,1,.19.73,4.39,4.39,0,0,1-.19,1.5c-.34-.1-.61-.07-.42-.22-1.57.91,3.11,1.36.95,3.1-2.28.38-.4-1.51-1.39-1.1-1.86-.57-2,.09-2.11,1s-.08,2-1.47,2.25l0-.42c-1.74.5-.1,3.19-1.38,4.8a1.07,1.07,0,0,0-.51-.27c1.06,2,.2,4.6-.42,6.42-1-1.19-.2-1.1-1.72-1.54-.3.79,2.25,1,1.69,2.54-.95-.06-2,.21-3.15-1l.48-.78c-.94-.49-1-.34-1,0s.11,1-.14,1l-.49-.85a7.39,7.39,0,0,0-.14,2.33c0,.24,0,.47,0,.7s0,.23-.06.34-.08.1-.12.15c-.21.12-.52.11-1-.12l.3.83c-.38,1-.75.53-1,0s-.4-1.06-1.05-.45c0-.8,0-1.59,0-2.36a6.79,6.79,0,0,1-1.77.69,13.93,13.93,0,0,1-3.37-.06,7.71,7.71,0,0,1,2.91-.93l.77-.1a1.67,1.67,0,0,0,.51-.18,3.49,3.49,0,0,0,.74-.47,2.28,2.28,0,0,0-.42-.14l-.27,0-.59-.12a2.85,2.85,0,0,0-2.17.22c.48,0,1.21-.31,1.44.15a6.26,6.26,0,0,1-5.78.37c2.22-3.7-4.54-3-4.47-6.58-4.1,0-6.45-3.38-10.53-4.78-.05,3.56-1.2-.39-2.45,2.77-1-.18-1.35-.38-1.33-.61l-1.9-3c-.23-1.17,1.2-.32,1.46-1-1.91-1.07-.21-1.65-1.15-3-.27,1.21-1.47,1.28-2.42.39l.93,2.08c-3.62.47-1.18-3.58-4.82-3.13l1.37-.6c-1.74,0-5.37-2.23-8-.36-.09-.46,0-1.44.73-1.4-1.65-.9-3.91-1-6-1.29l-.39,0a3.17,3.17,0,0,1-.46-.08l-1.17-.28-2.21-.51c-1.41-.31-2.7-.58-3.93-1,.14-.28.29-.55.44-.83a4.4,4.4,0,0,0-1.44.75,2.15,2.15,0,0,1-2,.42c0-.35.26-.92-.3-.82-.27.22-.94.8-1.64,1.41a6.43,6.43,0,0,1-2.24,1.43,15.49,15.49,0,0,1,.69-1.5,9.14,9.14,0,0,0-2.06,1,10.18,10.18,0,0,0-.84.61,1.82,1.82,0,0,0-.27.24l-.21.21a6.64,6.64,0,0,0-1.19,2,13.63,13.63,0,0,1-2,4.08c-1.67-1.88-4.6-.66-6,0l-.2-.29c-3.68,2.59-4.28,6.31-6.43,9.7-1.93-.06-3.69,1.23-5.4,2.8l-1.29,1.21-.18.15-.09.06-.2.1a.64.64,0,0,1-.8-.13,5.24,5.24,0,0,1,.81,2.43c-.21-.14-.2.51-.29.93s-.19.54-.44-.94l.08,0c-.41-1.43-.54-1.85-.63-1.88s-.08,0-.12,0a.28.28,0,0,1-.12-.08c0,1.31-.12,2.6-.22,3.87a9.4,9.4,0,0,0-.62-2.75c-.21-.34-.54-.35-1-.43a3,3,0,0,1-.68-.22,1.26,1.26,0,0,1-.33-.19,5.21,5.21,0,0,1-.47-.47,2,2,0,0,1-.31-2.37c-1.18-.13-1.87-.92-3-1.09l1.36-.94a19.69,19.69,0,0,0-3.75-5l1.35-.18a.84.84,0,0,0-.48-.33,1.57,1.57,0,0,0-.34-.07l-.5-.2a6.68,6.68,0,0,0-2.19-.24c-1.47,0-2.81.31-3.45-.62.45-.84.86-1.72,1.26-2.63a45,45,0,0,1-2.86-5.93,31.8,31.8,0,0,0-3.08-5.85l-.34.29-.38.39c-.25.28-.49.57-.74.87a22.76,22.76,0,0,0-1.46,2,4.44,4.44,0,0,1,1-2.34c-1,.79-3,1.89-4.62,3.3s-2.83,2.93-2,4.39c-.3-1.15-1.42-.28-2.61,1.14a33.8,33.8,0,0,0-3,4.41c-.26-.47-.5-.95-.74-1.44a5.62,5.62,0,0,0-.11,1l.1.66a6.85,6.85,0,0,1,.1,1A3.32,3.32,0,0,1,107,146c-.5.14-1.2-.67-.43-.76-1.79.36.09,1.85-2,2.41l-.15-1.18c-1.33.91-.86,1.22-.74,2.63-.35,1.09-2.65,1.58-3.82.67.43.78.54,2.17-.49,2.45a1,1,0,0,1-.4-1c-2.84.85-1.89,3.79-4.4,3.76a1.62,1.62,0,0,0-.89-.52,17,17,0,0,1,3.07-2.05c-1-1.07-2.52-.23-2.81-2.54-.34,1.64-.57,4.85-2.37,5.34a2.33,2.33,0,0,1-.52-.24l0-.23a1,1,0,0,0-.68.81,3.74,3.74,0,0,0-1.4.5c-1-.78-2,.69-2.72,1.15,1.12,1.16,0,1.63,1.77,2-.19,0,0-.24.41-.63.07-.11.18-.22.18-.34l0,.14c.42-.37,1-.83,1.63-1.35,0,1-.11,1.94-1.46,1.84.33,1,.65,2.12.76,2.65-2.42-1-5-.54-6.19-1.39-.76,1.11-1.9,2.13-2.78,3.27s-1.56,2.47-1,3.89c-.24.65-1-.36-1.33-.68.05-.41.32-.54.17-1-.1.55-.59,1-1,1.55a3.54,3.54,0,0,0-.56,2.47c-.65-.13-.52-.8-.5-1.21s.05-.62-.52,0l.1-.85c-.57-.62-.81-.55-1.26.1s-1,1.84-1.87,3.16a19,19,0,0,1-2.69,3.49c-.82.75-1.48.87-1-.81a4.85,4.85,0,0,1-.48,1.23.63.63,0,0,0-.6-.12,8.77,8.77,0,0,0,.32-2.74c0-.7-.17-1.35-.21-2.14a8.78,8.78,0,0,1,.25-2.74,7.56,7.56,0,0,1,1.57-3.07c.39-.54.21-.71-.17-.9a7.86,7.86,0,0,1-1.48-.8c.62-.1,1.23-.18,1.85-.25a9.9,9.9,0,0,1-1-.67c-.32-.28-.62-.65-.93-1-1.21-2.67,5-3.84,2.52-7.32l-1.26.27c.38-1.11-.21-3.69,1.15-3.33-.2-.14-1.2-.53-.51-.89l1,.08-1.2-3c1-2.08,3.67.8,4.33-2.31-.18-1.21-2.2-3.69-2.9-3.34a1.64,1.64,0,0,1-1.72,1l-.32-1.14c-2.73-.57-5.43-1.79-7.78.62l1.41,2.08-1.44.43.16-1.58c-1.4.73-.37,1.43.3,2.16a2.46,2.46,0,0,0-1.59.59l2.37,2.16c-1.12.09-2-1.09-2.81.07,1.11,1,2.55-.53,3.15,1-1.39.73-2.37.35-1.45,1.52a1.33,1.33,0,0,1-1.41-.66c.72,1,0,2.5,1.42,3.15-1.68.75,0,3.19-2.63,2.8A4.88,4.88,0,0,1,61,157.46c-2.94-1.9-.59,3.18-3.9,2.42a3.47,3.47,0,0,1,1.19,2,9.82,9.82,0,0,1,.17,2.53c-.05,1.94-.31,4.17.35,5.47-.21-.08-.66-.25-.47-.62-.45,2-1.42,3.06-2.14,4.76,2.49-1.18,2.79,1.28,4.25,1.27-1.34,2-2.07,2.5-2.76,2.57a3,3,0,0,0-2.57,1.22c1-.89,1.46-.23,1.86.28s.75.88,1.66-.35c-.85,1.59-1.08,2.19-1.37,2.73a32,32,0,0,1-1.77,2.75c1.62-1.62,1.72-1.38,1.65-.81s-.31,1.52.64,1a28.28,28.28,0,0,1-2.2,4.28,1.82,1.82,0,0,0-.23,2c-.58,1.44-1.11,1.95-1.49,2A.63.63,0,0,1,53.29,192.69Zm45.26-30.47,0,0-.65.6Zm2.88-2.22a10.43,10.43,0,0,0-1.3.91c-.47-.33-.75-.84-.44-1C99.79,160.26,100.68,160,101.43,160ZM87.9,156.36a.58.58,0,0,1,.95-.19,5.84,5.84,0,0,0-.67.74,1.82,1.82,0,0,1,.08.19A3.31,3.31,0,0,1,87.9,156.36Z"/><path class="cls-1" d="M88.48,158.54c0,.08,0,.15-.11.23a3.49,3.49,0,0,0,.51.06l-.17-.49Z"/><path class="cls-1" d="M327.47,137.22l-.05.07a.73.73,0,0,1,.27-.11A2.07,2.07,0,0,1,327.47,137.22Z"/><polygon class="cls-1" points="127.22 161.07 127.54 160.81 127.03 160.79 127.22 161.07"/><path class="cls-1" d="M343.19,128a.8.8,0,0,0,.38.31A1.09,1.09,0,0,0,343.19,128Z"/><path class="cls-1" d="M351.83,126.15l1.37.22A5.14,5.14,0,0,0,351.83,126.15Z"/><path class="cls-1" d="M358.62,125.22a4,4,0,0,0-.06-.67h0Z"/><path class="cls-1" d="M285.9,153.7a.58.58,0,0,0-.26-.06C285,153.64,285.37,153.72,285.9,153.7Z"/><path class="cls-1" d="M317.09,166.09a2.78,2.78,0,0,1-1.16.19C316.58,166.79,317.12,167.14,317.09,166.09Z"/><path class="cls-1" d="M253.5,141.72v0l-.2-.07Z"/><path class="cls-1" d="M314.21,165.28a2.53,2.53,0,0,0,1.72,1A4,4,0,0,0,314.21,165.28Z"/><path class="cls-1" d="M387.38,119.11h.34a.59.59,0,0,1,0-.25Z"/><path class="cls-1" d="M387.69,118.85l.31-.26C387.83,118.63,387.7,118.67,387.69,118.85Z"/><path class="cls-1" d="M388.64,118.05l-.64.54C388.26,118.54,388.59,118.52,388.64,118.05Z"/><path class="cls-1" d="M378.45,120.42l.05.57A1.56,1.56,0,0,0,378.45,120.42Z"/><path class="cls-1" d="M375.83,121.2c.67,0,1.92.78,2.7.24l0-.45C378.31,121.89,376.18,120.14,375.83,121.2Z"/><path class="cls-1" d="M362.82,117.16l2.36-.11c-.56-.48-1.3-1.13-.32-1.52C361.54,114.5,365.81,116.68,362.82,117.16Z"/><path class="cls-1" d="M355.65,118.05c1.12-.57-.26-.84-.3-1.18C354.75,117.59,354.61,117.76,355.65,118.05Z"/><path class="cls-1" d="M322.89,151.45l-1.48-.4C321.44,152,322,151.17,322.89,151.45Z"/><path class="cls-1" d="M328,164.53a10.64,10.64,0,0,0,1.07-.45c-.35-.56-.7-1.11-1.06-1.63Z"/><path class="cls-1" d="M318.65,156.67l-.13-.41c.07.29.17.64.21.91v.13l0-.1C318.74,157.07,318.68,156.84,318.65,156.67Z"/><path class="cls-1" d="M241.82,135.41l.38-.24a2.84,2.84,0,0,0,.24-.46l.13-.22.06-.12a.16.16,0,0,0,0-.06l0-.15a4.24,4.24,0,0,1,.08-1.19c0-.08,0-.12-.05-.23s0-.28,0-.42a4.91,4.91,0,0,1,.05-.86,4,4,0,0,1,.63-1.57,4.72,4.72,0,0,1,.56-.68,5.6,5.6,0,0,1,.53-.46,4.61,4.61,0,0,1,.78-.49,2.93,2.93,0,0,1,.4-.19l.22-.11.36-.16a4.2,4.2,0,0,0,.56-.25c.41-.26.67-.51.61-.74a.52.52,0,0,0-.35-.3,2,2,0,0,0-1.24-.06l-.6.12a7.37,7.37,0,0,0-2,.94,6.35,6.35,0,0,0-1.07,1,6.15,6.15,0,0,0-.87,1.3,5.5,5.5,0,0,0-.46,1.42,5.83,5.83,0,0,0-.06,1.56,3.37,3.37,0,0,0,.08.52c0,.13.06.27.1.4a6,6,0,0,0,.3.8c.06.14.12.27.19.4a1,1,0,0,1,.07.1l.28.35c.06.09.07.08.07.07Z"/><path class="cls-1" d="M232.71,155c-.4-1.11-.74-1.86-1-1C232,154.23,232.52,155.18,232.71,155Z"/><path class="cls-1" d="M141.46,154.7a5,5,0,0,0,.22-.62,1.83,1.83,0,0,1-.31.42Z"/></svg>